<mxfile host="65bd71144e">
    <diagram name="Page-1" id="0ldKek-iU02jKfbiF2tF">
        <mxGraphModel dx="920" dy="815" grid="1" gridSize="10" guides="1" tooltips="1" connect="1" arrows="1" fold="1" page="1" pageScale="1" pageWidth="850" pageHeight="1100" math="0" shadow="0">
            <root>
                <mxCell id="0"/>
                <mxCell id="1" parent="0"/>
                <mxCell id="_2ixU3wgtDf2_42zTylj-5" value="" style="rounded=0;whiteSpace=wrap;html=1;fillColor=none;strokeColor=#0c14ed;strokeWidth=2;" parent="1" vertex="1">
                    <mxGeometry x="120" y="200" width="640" height="400" as="geometry"/>
                </mxCell>
                <mxCell id="_2ixU3wgtDf2_42zTylj-11" value="VPC" style="sketch=0;outlineConnect=0;gradientColor=none;html=1;whiteSpace=wrap;fontSize=12;fontStyle=0;shape=mxgraph.aws4.group;grIcon=mxgraph.aws4.group_vpc;strokeColor=#63ce1c;fillColor=none;verticalAlign=top;align=left;spacingLeft=30;fontColor=#879196;dashed=0;strokeWidth=2;" parent="1" vertex="1">
                    <mxGeometry x="160" y="240" width="560" height="320" as="geometry"/>
                </mxCell>
                <mxCell id="_2ixU3wgtDf2_42zTylj-3" value="" style="dashed=0;html=1;shape=mxgraph.aws3.cloud;fillColor=#F58536;gradientColor=none;dashed=0;strokeColor=default;" parent="1" vertex="1">
                    <mxGeometry x="130" y="180" width="52" height="36" as="geometry"/>
                </mxCell>
                <mxCell id="_2ixU3wgtDf2_42zTylj-8" value="Cluster-FIAP" style="rounded=0;whiteSpace=wrap;html=1;fillColor=#fad7ac;strokeColor=#b46504;labelPosition=center;verticalLabelPosition=top;align=center;verticalAlign=bottom;dashed=1;strokeWidth=3;" parent="1" vertex="1">
                    <mxGeometry x="280" y="320" width="130" height="190" as="geometry"/>
                </mxCell>
                <mxCell id="_2ixU3wgtDf2_42zTylj-18" style="edgeStyle=orthogonalEdgeStyle;rounded=0;orthogonalLoop=1;jettySize=auto;html=1;" parent="1" source="_2ixU3wgtDf2_42zTylj-9" target="_2ixU3wgtDf2_42zTylj-6" edge="1">
                    <mxGeometry relative="1" as="geometry">
                        <Array as="points">
                            <mxPoint x="490" y="390"/>
                            <mxPoint x="490" y="390"/>
                        </Array>
                    </mxGeometry>
                </mxCell>
                <mxCell id="_2ixU3wgtDf2_42zTylj-9" value="RDS" style="outlineConnect=0;dashed=0;verticalLabelPosition=bottom;verticalAlign=top;align=center;html=1;shape=mxgraph.aws3.rds;fillColor=#2E73B8;gradientColor=none;" parent="1" vertex="1">
                    <mxGeometry x="600" y="358.5" width="72" height="81" as="geometry"/>
                </mxCell>
                <mxCell id="_2ixU3wgtDf2_42zTylj-13" value="Mercado Pago" style="image;aspect=fixed;perimeter=ellipsePerimeter;html=1;align=center;shadow=0;dashed=0;spacingTop=3;image=img/lib/active_directory/internet_globe.svg;" parent="1" vertex="1">
                    <mxGeometry x="320" y="690" width="50" height="50" as="geometry"/>
                </mxCell>
                <mxCell id="_2ixU3wgtDf2_42zTylj-15" style="edgeStyle=orthogonalEdgeStyle;rounded=0;orthogonalLoop=1;jettySize=auto;html=1;entryX=0.5;entryY=0;entryDx=0;entryDy=0;startArrow=classic;startFill=1;" parent="1" source="_2ixU3wgtDf2_42zTylj-6" target="_2ixU3wgtDf2_42zTylj-13" edge="1">
                    <mxGeometry relative="1" as="geometry"/>
                </mxCell>
                <mxCell id="_2ixU3wgtDf2_42zTylj-17" style="edgeStyle=orthogonalEdgeStyle;rounded=0;orthogonalLoop=1;jettySize=auto;html=1;" parent="1" source="_2ixU3wgtDf2_42zTylj-6" target="_2ixU3wgtDf2_42zTylj-9" edge="1">
                    <mxGeometry relative="1" as="geometry">
                        <Array as="points">
                            <mxPoint x="550" y="410"/>
                            <mxPoint x="550" y="410"/>
                        </Array>
                    </mxGeometry>
                </mxCell>
                <mxCell id="_2ixU3wgtDf2_42zTylj-6" value="Order-System" style="sketch=0;points=[[0,0,0],[0.25,0,0],[0.5,0,0],[0.75,0,0],[1,0,0],[0,1,0],[0.25,1,0],[0.5,1,0],[0.75,1,0],[1,1,0],[0,0.25,0],[0,0.5,0],[0,0.75,0],[1,0.25,0],[1,0.5,0],[1,0.75,0]];outlineConnect=0;fontColor=#232F3E;fillColor=#ED7100;strokeColor=#ffffff;dashed=0;verticalLabelPosition=top;verticalAlign=bottom;align=center;html=1;fontSize=12;fontStyle=0;aspect=fixed;shape=mxgraph.aws4.resourceIcon;resIcon=mxgraph.aws4.eks;labelPosition=center;" parent="1" vertex="1">
                    <mxGeometry x="306" y="360" width="78" height="78" as="geometry"/>
                </mxCell>
                <mxCell id="_2ixU3wgtDf2_42zTylj-24" style="edgeStyle=orthogonalEdgeStyle;rounded=0;orthogonalLoop=1;jettySize=auto;html=1;" parent="1" source="_2ixU3wgtDf2_42zTylj-19" target="_2ixU3wgtDf2_42zTylj-6" edge="1">
                    <mxGeometry relative="1" as="geometry"/>
                </mxCell>
                <mxCell id="_2ixU3wgtDf2_42zTylj-19" value="User" style="html=1;verticalLabelPosition=bottom;align=center;labelBackgroundColor=none;verticalAlign=top;strokeWidth=2;strokeColor=#0080F0;shadow=0;dashed=0;shape=mxgraph.ios7.icons.user;" parent="1" vertex="1">
                    <mxGeometry y="369" width="60" height="60" as="geometry"/>
                </mxCell>
            </root>
        </mxGraphModel>
    </diagram>
</mxfile>